# xmcd
#
# Track frame offsets:
#	150
#	14408
#	32558
#	51782
#	62712
#
# Disc length: 960 seconds
#
# Revision: 1
# Processed by: cddbd v1.5.2PL0 Copyright (c) Steve Scherf et al.
# Submitted via: audiograbber 1.83.01
#
DISCID=3903be05
DTITLE=Thistles and Weeds - Tomorrow Is Our Time
DYEAR=2015
DGENRE=Nu-grass
TTITLE0=Transistor Radio
TTITLE1=In Time
TTITLE2=Fight On
TTITLE3=Welcome Home
TTITLE4=Devil's Dusty Road (Bonus track)
EXTD=https://www.facebook.com/thistleweedsband/
EXTT0=
EXTT1=
EXTT2=
EXTT3=
EXTT4=
PLAYORDER=
